<?xml version="1.0" encoding="iso-8859-1"?>
<!-- Uploaded to: SVG Repo, www.svgrepo.com, Generator: SVG Repo Mixer Tools -->
<!DOCTYPE svg PUBLIC "-//W3C//DTD SVG 1.1//EN" "http://www.w3.org/Graphics/SVG/1.1/DTD/svg11.dtd">
<svg fill="#000000" height="800px" width="800px" version="1.1" id="Capa_1" xmlns="http://www.w3.org/2000/svg" xmlns:xlink="http://www.w3.org/1999/xlink" 
	 viewBox="0 0 490 490" xml:space="preserve">
<g>
	<path d="M416.018,235.16L416,290.386h0.023c0.246,10.012,9.961,18.068,21.932,18.068c11.97,0,21.684-8.057,21.931-18.068h0.023
		l-0.018-55.226c-0.189-10.055-9.93-18.16-21.936-18.16C425.947,217,416.205,225.105,416.018,235.16z"/>
	<circle cx="184.837" cy="317.545" r="15.703"/>
	<circle cx="305.163" cy="317.545" r="15.703"/>
	<path d="M226.121,383.311c-2.225-3.689-7.019-4.876-10.708-2.651c-3.689,2.226-4.876,7.02-2.651,10.708
		c5.526,9.161,18.18,15.081,32.238,15.081s26.712-5.92,32.238-15.081c2.225-3.689,1.037-8.482-2.651-10.708
		c-3.691-2.224-8.483-1.037-10.708,2.651c-2.19,3.631-9.031,7.538-18.879,7.538C235.152,390.85,228.311,386.942,226.121,383.311z"/>
	<path d="M314.797,448.204c-44.084,20.757-95.51,20.757-139.594,0c-12.429,10.218-22.57,23.112-29.56,37.796h198.713
		C337.367,471.316,327.226,458.422,314.797,448.204z"/>
	<g>
		<path d="M490,86.662c0-7.507-6.251-14.082-15.614-17.727L256.332,5.135C252.832,4.404,249.009,4,245,4
			c-4.006,0-7.826,0.404-11.323,1.133L15.613,68.936C6.251,72.58,0,79.155,0,86.662c0,7.74,6.65,14.486,16.502,18.055
			l216.354,63.297c3.718,0.84,7.823,1.311,12.145,1.311c4.325,0,8.436-0.471,12.155-1.313l216.337-63.293
			C483.348,101.15,490,94.404,490,86.662z"/>
		<path d="M390,243.066v-85.146v-7.936l-127.228,37.223l-0.596,0.174l-0.605,0.138c-5.295,1.198-10.869,1.806-16.57,1.806
			c-5.689,0-11.258-0.606-16.552-1.803l-0.609-0.137l-0.6-0.176L100,149.983v7.938v84.9l0.839,0.245l6.01,1.758
			c-6.733,16.959-10.438,35.45-10.438,54.808c0,82.064,66.526,148.59,148.59,148.59s148.59-66.526,148.59-148.59
			c0-19.278-3.672-37.697-10.354-54.599L390,243.066z M245,432.621c-73.448,0-132.99-59.541-132.99-132.989
			c0-17.841,3.521-34.856,9.894-50.402l110.951,32.46c3.718,0.84,7.823,1.31,12.145,1.31c4.325,0,8.436-0.471,12.155-1.313
			l111.016-32.275c6.325,15.496,9.819,32.449,9.819,50.22C377.99,373.08,318.448,432.621,245,432.621z"/>
		<path d="M427.954,138.88v59.224c3.244-0.724,6.598-1.104,10.001-1.104c3.402,0,6.756,0.379,9.999,1.104v-65.074L427.954,138.88z"
			/>
	</g>
</g>
</svg>