<svg id="Layer_1" data-name="Layer 1" xmlns="http://www.w3.org/2000/svg" viewBox="0 0 96 96"><defs><style>.cls-1{fill:#d82e27;}</style></defs><title>Favicon</title><g id="Artwork_1" data-name="Artwork 1"><path class="cls-1" d="M.5,13.71H38.91c.25,1.36.43,2.61.55,3.77a29.71,29.71,0,0,1,.18,3.31,44.71,44.71,0,0,1-.73,7.29H16.62V39.33H34.19A37.4,37.4,0,0,1,35,46.51a38,38,0,0,1-.83,7.28H16.62V81.46a49.25,49.25,0,0,1-8,.83A48.55,48.55,0,0,1,.5,81.46Z"/><path class="cls-1" d="M87.49,82.29a46.65,46.65,0,0,1-8.12-.84V53.94H63.24V81.45a49.74,49.74,0,0,1-8,.84,46.94,46.94,0,0,1-8.13-.84v-67c1.64-.23,3.14-.44,4.47-.54s2.51-.19,3.55-.19,2.33.06,3.69.19,2.84.31,4.43.54v25H79.35v-25c1.64-.23,3.11-.44,4.42-.54s2.52-.19,3.61-.19,2.33.06,3.7.19,2.84.31,4.42.54v67a49.08,49.08,0,0,1-8,.82"/></g></svg>